<svg xmlns="http://www.w3.org/2000/svg" viewBox="0 0 100 125" x="0px" y="0px"><path d="M11.95,64.321H19.4v1.95H13.85a3.694,3.694,0,0,0-3.69,3.689v8.25a3.694,3.694,0,0,0,3.69,3.69H55.98a1,1,0,0,0,0-2H13.85a1.692,1.692,0,0,1-1.69-1.69V69.96a1.692,1.692,0,0,1,1.69-1.689H19.4v1.717a4.228,4.228,0,1,0,2,0V68.271H32.06v1.717a4.228,4.228,0,1,0,2,0V68.271H44.719v1.717a4.228,4.228,0,1,0,2,0V68.271h5.3a1,1,0,0,0,0-2h-5.3v-1.95h7.186a35.622,35.622,0,0,0,3.307,5.641,9.527,9.527,0,0,1,1.766,5.517V89.14a1,1,0,0,0,1,1H78.735a1,1,0,0,0,1-1V82.5a1,1,0,0,0-2,0V88.14H60.978V75.479a11.512,11.512,0,0,0-2.132-6.67,34.636,34.636,0,0,1-2.714-4.488h4.174a4.229,4.229,0,1,0,0-2h-5.07a16.229,16.229,0,0,1-1.172-8.042h3.948a4.228,4.228,0,1,0,0-2H54.451a16.191,16.191,0,0,1,1.385-3.423,17.905,17.905,0,0,1,15.576-9.3,17.567,17.567,0,0,1,17.653,17.23c0,.024.013.045.015.069a.982.982,0,0,0,.039.177,1.008,1.008,0,0,0,.086.224c.008.013.008.028.016.041l3.03,4.763a1.6,1.6,0,0,1-.36,2.108,1.5,1.5,0,0,1-.974.336h-1.6a1,1,0,0,0-1,1v7a5.12,5.12,0,0,1-2.961,4.637,6.458,6.458,0,0,1-2.689.6H80.305a6.345,6.345,0,0,1-4.467-1.816l-2.91-2.807a7.6,7.6,0,0,0-5.3-2.148,1,1,0,0,0,0,2,5.607,5.607,0,0,1,3.908,1.587l2.911,2.806a8.32,8.32,0,0,0,5.856,2.378h2.362a8.479,8.479,0,0,0,3.527-.78A7.127,7.127,0,0,0,90.317,72.5v-6h.6a3.506,3.506,0,0,0,2.237-.786A3.593,3.593,0,0,0,93.942,61l-2.9-4.558a19.544,19.544,0,0,0-19.63-18.878A19.929,19.929,0,0,0,54.076,47.907a18.279,18.279,0,0,0-1.693,4.372H20.4a1,1,0,0,0-1,1V56.34H13.48V17.84H65.43v17.3a1,1,0,0,0,2,0V16.84a1,1,0,0,0-1-1H12.48a1,1,0,0,0-1,1v40.5a1,1,0,0,0,1,1H19.4v3.981H11.95a4.456,4.456,0,0,1-4.45-4.45V16.311a4.456,4.456,0,0,1,4.45-4.451H66.97a4.451,4.451,0,0,1,4.44,4.451V34.59a1,1,0,0,0,2,0V16.311A6.453,6.453,0,0,0,66.97,9.86H11.95A6.458,6.458,0,0,0,5.5,16.311v41.56A6.458,6.458,0,0,0,11.95,64.321Zm10.678,9.763A2.228,2.228,0,1,1,20.4,71.856,2.231,2.231,0,0,1,22.628,74.084Zm12.66,0a2.229,2.229,0,1,1-2.228-2.228A2.231,2.231,0,0,1,35.288,74.084Zm12.659,0a2.228,2.228,0,1,1-2.228-2.228A2.231,2.231,0,0,1,47.947,74.084ZM64.4,61.092a2.229,2.229,0,1,1-2.229,2.229A2.231,2.231,0,0,1,64.4,61.092ZM62.108,51.051a2.229,2.229,0,1,1-2.228,2.228A2.231,2.231,0,0,1,62.108,51.051ZM21.4,66.271v-1.95H32.06v1.95Zm12.66,0v-1.95H44.719v1.95ZM44.719,56.34H34.06V54.279H44.719Zm0,2v3.981H34.06V58.34Zm8.365,3.981H46.719V58.34H48.98a1,1,0,0,0,0-2H46.719V54.279h5.3A17.7,17.7,0,0,0,53.084,62.321ZM21.4,54.279H32.06V56.34H21.4Zm0,4.061H32.06v3.981H21.4Z"/><path d="M45.958,25.017H33.06c-.019,0-.035.01-.053.011a.95.95,0,0,0-.2.041,1,1,0,0,0-.174.054.961.961,0,0,0-.148.1,1,1,0,0,0-.162.135c-.012.014-.029.02-.041.034L29.164,29.28l-2.656-8.19a1,1,0,0,0-1.752-.29L21.6,25.017H16.9a1,1,0,1,0,0,2h5.2a1,1,0,0,0,.8-.4l2.3-3.072,2.633,8.118a1,1,0,0,0,.771.675,1.012,1.012,0,0,0,.18.016,1,1,0,0,0,.78-.375l3.974-4.961H45.958a1,1,0,0,0,0-2Z"/><path d="M45.958,35.308H16.9a1,1,0,1,0,0,2H45.958a1,1,0,0,0,0-2Z"/><path d="M20.4,42.28a1,1,0,0,0-1,1v2.43H16.9a1,1,0,1,0,0,2H45.958a1,1,0,0,0,0-2h-2.5V41.262a1,1,0,0,0-2,0V45.71H37.946V43.28a1,1,0,0,0-2,0v2.43H32.43V41.262a1,1,0,0,0-2,0V45.71H26.915V43.28a1,1,0,0,0-2,0v2.43H21.4V43.28A1,1,0,0,0,20.4,42.28Z"/><path d="M56,21.654a4.363,4.363,0,1,0,4.363,4.363A4.368,4.368,0,0,0,56,21.654Zm0,6.726a2.363,2.363,0,1,1,2.363-2.363A2.366,2.366,0,0,1,56,28.38Z"/><path d="M56,31.945a4.363,4.363,0,1,0,4.363,4.363A4.368,4.368,0,0,0,56,31.945Zm0,6.726a2.363,2.363,0,1,1,2.363-2.363A2.366,2.366,0,0,1,56,38.671Z"/><text x="0" y="115" fill="#000000" font-size="5px" font-weight="bold" font-family="'Helvetica Neue', Helvetica, Arial-Unicode, Arial, Sans-serif">Created by Iki</text><text x="0" y="120" fill="#000000" font-size="5px" font-weight="bold" font-family="'Helvetica Neue', Helvetica, Arial-Unicode, Arial, Sans-serif">from the Noun Project</text></svg>