<svg xmlns="http://www.w3.org/2000/svg" version="1.1" viewBox="-5.0 -10.0 110.0 135.0">
 <path d="m10 82v-7c0-1.1055 0.89453-2 2-2s2 0.89453 2 2v7l0.003906 0.20703c0.10938 2.1133 1.8555 3.793 3.9961 3.793h7c1.1055 0 2 0.89453 2 2s-0.89453 2-2 2h-7c-4.2812 0-7.7734-3.3594-7.9883-7.5898zm76 0v-7c0-1.1055 0.89453-2 2-2s2 0.89453 2 2v7l-0.011719 0.41016c-0.20703 4.0938-3.4844 7.3711-7.5781 7.5781l-0.41016 0.011719h-7c-1.1055 0-2-0.89453-2-2s0.89453-2 2-2h7l0.20703-0.003906c2.043-0.10547 3.6836-1.7461 3.7891-3.7891zm-38-61c0-1.1055 0.89453-2 2-2s2 0.89453 2 2v6.0469c5.2812 0.23047 10.535 1.3672 15.535 3.4141l3.7344-6.4609 0.10938-0.17188c0.59375-0.82031 1.7227-1.0781 2.6211-0.55859 0.89844 0.51562 1.2422 1.625 0.82422 2.5469l-0.09375 0.18359-3.5469 6.1445c3.2773 1.6797 6.4141 3.7773 9.3438 6.2812l6.3984-3.6953c0.95703-0.55078 2.1836-0.22266 2.7344 0.73438 0.55078 0.95703 0.22266 2.1797-0.73438 2.7344l-5.3359 3.082c0.34375 0.34766 0.6875 0.70312 1.0234 1.0664l4.125 4.418 0.15234 0.17188c1.4805 1.75 1.4805 4.375 0 6.125l-0.15234 0.17188-4.125 4.418c-18.949 20.305-49.645 20.461-68.777 0.47656l-0.44922-0.47656-4.125-4.418c-1.6836-1.8008-1.6836-4.668 0-6.4688l4.125-4.418 0.44922-0.47656c0.24609-0.25781 0.49609-0.51172 0.74609-0.76172l-5.0469-2.9102-0.17188-0.11328c-0.82031-0.59375-1.0781-1.7227-0.55859-2.6211 0.51562-0.89844 1.625-1.2422 2.5469-0.82422l0.18359 0.089844 6.125 3.5391c2.875-2.4375 5.9492-4.4805 9.1523-6.125l-3.543-6.1445-0.09375-0.18359c-0.41797-0.92188-0.074219-2.0312 0.82422-2.5469 0.89844-0.51953 2.0273-0.26172 2.6211 0.55859l0.10938 0.17188 3.7344 6.4609c5-2.0469 10.254-3.1836 15.535-3.4141zm-23 29.254c0-5.1641 1.6328-9.9453 4.4062-13.891-3.8281 2.1289-7.4375 4.8867-10.684 8.2773l-0.41406 0.4375-4.125 4.418c-0.24609 0.26172-0.24609 0.74609 0 1.0078l4.125 4.418 0.41406 0.4375c3.0898 3.2305 6.5078 5.8828 10.129 7.9648-2.4375-3.7812-3.8516-8.2617-3.8516-13.07zm23 12.746v-3.2031c-3.918-0.79297-7.0039-3.8789-7.8008-7.7969h-3.1992c-1.1055 0-2-0.89453-2-2s0.89453-2 2-2h3.1992c0.79688-3.918 3.8828-7.0039 7.8008-7.8008v-3.1992c0-1.1055 0.89453-2 2-2s2 0.89453 2 2v3.1992c3.918 0.79688 7.0039 3.8828 7.8008 7.8008h3.1992l0.20312 0.011719c1.0078 0.10156 1.7969 0.95312 1.7969 1.9883s-0.78906 1.8867-1.7969 1.9883l-0.20312 0.011719h-3.1992c-0.79688 3.918-3.8828 7.0039-7.8008 7.7969v3.2031c0 1.1055-0.89453 2-2 2s-2-0.89453-2-2zm-3.6562-11c0.60156 1.7031 1.9531 3.0547 3.6562 3.6562v-3.6562zm7.6562 3.6562c1.7031-0.60156 3.0547-1.9531 3.6562-3.6562h-3.6562zm0-7.6562h3.6562c-0.60156-1.7031-1.9531-3.0547-3.6562-3.6562zm-4-3.6562c-1.7031 0.60156-3.0547 1.9531-3.6562 3.6562h3.6562zm-38-19.344v-7c0-4.418 3.582-8 8-8h7c1.1055 0 2 0.89453 2 2s-0.89453 2-2 2h-7c-2.2109 0-4 1.7891-4 4v7c0 1.1055-0.89453 2-2 2-1.0352 0-1.8867-0.78906-1.9883-1.7969zm76 0v-7c0-2.1406-1.6797-3.8867-3.793-3.9961l-0.20703-0.003906h-7c-1.1055 0-2-0.89453-2-2s0.89453-2 2-2h7l0.41016 0.011719c4.2305 0.21484 7.5898 3.707 7.5898 7.9883v7c0 1.1055-0.89453 2-2 2s-2-0.89453-2-2zm-57 25.254c0 7.1055 3.7109 13.387 9.3789 17.07 0.03125 0.019531 0.058594 0.039062 0.085938 0.0625 7.5508 2.1484 15.52 2.1484 23.066 0 0.03125-0.023438 0.058594-0.042969 0.089844-0.0625 5.668-3.6836 9.3789-9.9648 9.3789-17.07 0-7.4961-4.1289-14.078-10.324-17.652l-0.60547-0.33594-0.10547-0.066406c-6.5547-1.5938-13.375-1.5977-19.93 0-0.035156 0.023437-0.066406 0.046875-0.10547 0.066406-6.5312 3.4883-10.93 10.25-10.93 17.988zm46 0c0 4.8086-1.4141 9.2891-3.8555 13.07 3.7891-2.1758 7.3477-4.9766 10.547-8.4023l4.125-4.418 0.082032-0.10547c0.13672-0.23438 0.13672-0.5625 0-0.79688l-0.082032-0.10547-4.125-4.418c-3.3555-3.5938-7.1055-6.4961-11.098-8.7148 2.7734 3.9453 4.4062 8.7266 4.4062 13.891z"/>
<text x="0.0" y="117.5" font-size="5.0" font-weight="bold" font-family="Arbeit Regular, Helvetica, Arial-Unicode, Arial, Sans-serif" fill="#000000">Created by HideMaru</text><text x="0.0" y="122.5" font-size="5.0" font-weight="bold" font-family="Arbeit Regular, Helvetica, Arial-Unicode, Arial, Sans-serif" fill="#000000">from Noun Project</text></svg>