<svg xmlns="http://www.w3.org/2000/svg" xmlns:xlink="http://www.w3.org/1999/xlink" version="1.1" x="0px" y="0px" viewBox="0 0 200 250" style="enable-background:new 0 0 200 200;" xml:space="preserve"><g><g><path d="M98,157h-3.8c-4.5,0-8.8-1.8-12-5l-13.7-13.7c-4.1-4.1-6.5-9.8-6.4-15.6v-1.6c0-1.2-0.5-2.4-1.5-3.1l-0.5-0.4    c-1.9-1.5-3-3.8-3-6.2V97.9c0-2.4,1.1-4.7,3-6.2l0.5-0.4c1-0.8,1.5-1.9,1.5-3.1V74c0-21,17-38,38-38s38,17,38,38v14.1    c0,1.2,0.5,2.4,1.5,3.1l0.5,0.4c1.9,1.5,3,3.8,3,6.2c0,1.1-0.9,2-2,2s-2-0.9-2-2c0-1.2-0.5-2.4-1.5-3.1l-0.5-0.4    c-1.9-1.5-3-3.8-3-6.2V74c0-18.7-15.3-34-34-34S66,55.3,66,74v14.1c0,2.4-1.1,4.7-3,6.2l-0.5,0.4c-1,0.8-1.5,1.9-1.5,3.1v13.4    c0,1.2,0.5,2.4,1.5,3.1l0.5,0.4c1.9,1.5,3,3.8,3,6.3v1.6c0,4.8,1.9,9.4,5.3,12.8L85,149.2c2.5,2.5,5.7,3.8,9.2,3.8H98    c1.1,0,2,0.9,2,2S99.1,157,98,157z"/><path d="M75,164c-1.1,0-2-0.9-2-2v-18.4c0-1.1,0.9-2,2-2s2,0.9,2,2V162C77,163.1,76.1,164,75,164z"/><path d="M38,68c-1.1,0-2-0.9-2-2V44c0-4.4,3.6-8,8-8h22c1.1,0,2,0.9,2,2s-0.9,2-2,2H44c-2.2,0-4,1.8-4,4v22C40,67.1,39.1,68,38,68    z"/><path d="M66,164H44c-4.4,0-8-3.6-8-8v-22c0-1.1,0.9-2,2-2s2,0.9,2,2v22c0,2.2,1.8,4,4,4h22c1.1,0,2,0.9,2,2S67.1,164,66,164z"/><path d="M162,68c-1.1,0-2-0.9-2-2V44c0-2.2-1.8-4-4-4h-22c-1.1,0-2-0.9-2-2s0.9-2,2-2h22c4.4,0,8,3.6,8,8v22    C164,67.1,163.1,68,162,68z"/><path d="M100,49c-1.1,0-2-0.9-2-2v-3c0-1.1,0.9-2,2-2s2,0.9,2,2v3C102,48.1,101.1,49,100,49z"/><path d="M100,70c-1.1,0-2-0.9-2-2v-8c0-1.1,0.9-2,2-2s2,0.9,2,2v8C102,69.1,101.1,70,100,70z"/><path d="M100,91c-1.1,0-2-0.9-2-2v-8c0-1.1,0.9-2,2-2s2,0.9,2,2v8C102,90.1,101.1,91,100,91z"/><path d="M100,113c-1.1,0-2-0.9-2-2v-8c0-1.1,0.9-2,2-2s2,0.9,2,2v8C102,112.1,101.1,113,100,113z"/><path d="M100,134c-1.1,0-2-0.9-2-2v-8c0-1.1,0.9-2,2-2s2,0.9,2,2v8C102,133.1,101.1,134,100,134z"/><path d="M100,150c-1.1,0-2-0.9-2-2v-3c0-1.1,0.9-2,2-2s2,0.9,2,2v3C102,149.1,101.1,150,100,150z"/><path d="M49.5,98H46c-1.1,0-2-0.9-2-2s0.9-2,2-2h3.5c1.1,0,2,0.9,2,2S50.6,98,49.5,98z"/><path d="M68.5,98h-8c-1.1,0-2-0.9-2-2s0.9-2,2-2h8c1.1,0,2,0.9,2,2S69.6,98,68.5,98z"/><path d="M91.5,98h-8c-1.1,0-2-0.9-2-2s0.9-2,2-2h8c1.1,0,2,0.9,2,2S92.6,98,91.5,98z"/><path d="M116.5,98h-8c-1.1,0-2-0.9-2-2s0.9-2,2-2h8c1.1,0,2,0.9,2,2S117.6,98,116.5,98z"/><path d="M139.5,98h-8c-1.1,0-2-0.9-2-2s0.9-2,2-2h8c1.1,0,2,0.9,2,2S140.6,98,139.5,98z"/><path d="M154,98h-3.5c-1.1,0-2-0.9-2-2s0.9-2,2-2h3.5c1.1,0,2,0.9,2,2S155.1,98,154,98z"/></g><g><path d="M138,155c-6.9,0-13.5-2.7-18.4-7.6c-10.1-10.1-10.1-26.6,0-36.8c10.1-10.1,26.6-10.1,36.8,0c4.9,4.9,7.6,11.4,7.6,18.4    c0,6.9-2.7,13.5-7.6,18.4l0,0l0,0C151.5,152.3,144.9,155,138,155z M138,107c-5.6,0-11.3,2.1-15.6,6.4c-8.6,8.6-8.6,22.5,0,31.1    c4.2,4.2,9.7,6.4,15.6,6.4s11.4-2.3,15.6-6.4l0,0c4.2-4.2,6.4-9.7,6.4-15.6c0-5.9-2.3-11.4-6.4-15.6    C149.3,109.2,143.6,107,138,107z"/><path d="M112,162.7c-2,0-4-0.8-5.4-2.2s-2.2-3.4-2.2-5.4s0.8-4,2.2-5.4l9.1-10c0.7-0.8,2-0.9,2.8-0.1c0.8,0.7,0.9,2,0.1,2.8    l-9.2,10.1c-0.8,0.8-1.1,1.7-1.1,2.7s0.4,1.9,1.1,2.6c1.4,1.4,3.7,1.4,5.2,0l8.9-9.8c0.7-0.8,2-0.9,2.8-0.1c0.8,0.7,0.9,2,0.1,2.8    l-8.9,9.9C116,161.9,114,162.7,112,162.7z"/></g></g><text x="0" y="215" fill="#000000" font-size="5px" font-weight="bold" font-family="'Helvetica Neue', Helvetica, Arial-Unicode, Arial, Sans-serif">Created by bsd studio</text><text x="0" y="220" fill="#000000" font-size="5px" font-weight="bold" font-family="'Helvetica Neue', Helvetica, Arial-Unicode, Arial, Sans-serif">from the Noun Project</text></svg>